<svg xmlns="http://www.w3.org/2000/svg" viewBox="0 0 48 48">
  <circle cx="24" cy="24" r="20" fill="#607D8B"/>
  <path fill="#FFF" d="M24 8c-8.837 0-16 7.163-16 16s7.163 16 16 16 16-7.163 16-16S32.837 8 24 8zm13.914 15h-5.95c-.164-3.627-.94-6.952-2.192-9.582A14.043 14.043 0 0 1 37.914 23zM24 38c-1.278 0-3.368-3.186-3.936-9h7.872c-.568 5.814-2.658 9-3.936 9zm-3.985-11c-.01-.331-.015-.664-.015-1s.005-.669.015-1h7.97c.01.331.015.664.015 1s-.005.669-.015 1h-7.97zM10.086 23a14.043 14.043 0 0 1 8.142-9.582c-1.252 2.63-2.028 5.955-2.192 9.582h-5.95zM16.036 25h-5.95a14.043 14.043 0 0 0 8.142 9.582c-1.252-2.63-2.028-5.955-2.192-9.582zm4.028 0h7.872c-.568 5.814-2.658 9-3.936 9s-3.368-3.186-3.936-9zm9.708-11.582A14.043 14.043 0 0 1 37.914 23h-5.95c-.164-3.627-.94-6.952-2.192-9.582z" opacity=".3"/>
  <ellipse cx="24" cy="24" fill="none" stroke="#FFF" stroke-width="1.5" rx="8" ry="16"/>
  <line x1="8" y1="24" x2="40" y2="24" stroke="#FFF" stroke-width="1.5"/>
  <circle cx="24" cy="24" r="16" fill="none" stroke="#FFF" stroke-width="1.5"/>
</svg>
